<?xml version="1.0" encoding="UTF-8"?>
<svg xmlns="http://www.w3.org/2000/svg" xmlns:xlink="http://www.w3.org/1999/xlink" viewBox="0 0 100 100" width="100px" height="100px">
<g id="surface29164717">
<path style=" stroke:none;fill-rule:nonzero;fill:rgb(25.882354%,24.313726%,21.568628%);fill-opacity:1;" d="M 12 8 C 9.8125 8 8 9.8125 8 12 L 8 88 C 8 90.1875 9.8125 92 12 92 L 88 92 C 90.1875 92 92 90.1875 92 88 L 92 12 C 92 9.8125 90.1875 8 88 8 Z M 12 12 L 88 12 L 88 88 L 12 88 Z M 37.171875 28 C 34.292969 28 31.988281 28.320312 30.003906 28.832031 L 30 72 L 34.929688 72 L 34.929688 53.660156 C 35.632812 53.722656 36.273438 53.722656 37.105469 53.722656 C 40.945312 53.722656 44.976562 52.125 47.28125 48.925781 C 48.945312 46.75 49.902344 44.0625 49.902344 40.09375 C 49.902344 36.320312 48.816406 33.179688 46.769531 31.132812 C 44.53125 28.957031 41.136719 28 37.171875 28 Z M 37.953125 31.28125 C 43.457031 31.28125 45.246094 35.246094 45.246094 39.660156 C 45.246094 45.738281 41.980469 48.941406 37.183594 48.941406 C 36.351562 48.941406 35.773438 48.878906 35.199219 48.816406 L 35.199219 31.601562 C 35.839844 31.40625 36.800781 31.28125 37.953125 31.28125 Z M 63.433594 40 C 58.453125 40 54.601562 43.539062 54.601562 48.613281 C 54.601562 52.148438 56.855469 54.847656 61.039062 57.480469 C 64.292969 59.535156 65.152344 61.207031 65.152344 63.585938 C 65.152344 66.347656 63.296875 68.082031 60.441406 68.082031 C 58.382812 68.082031 56.390625 67.183594 55.261719 66.476562 L 54 70.199219 C 55.394531 71.292969 57.984375 72 60.308594 72 C 65.621094 72 70 68.980469 70 62.746094 C 70 58.441406 67.082031 55.546875 63.367188 53.234375 C 60.179688 51.179688 59.382812 49.957031 59.382812 47.902344 C 59.382812 45.847656 60.773438 43.921875 63.496094 43.921875 C 65.222656 43.921875 66.550781 44.5 67.8125 45.335938 L 69.140625 41.605469 C 67.8125 40.769531 65.957031 40 63.433594 40 Z M 63.433594 40 "/>
</g>
</svg>
