<?xml version="1.0" encoding="UTF-8"?>
<svg xmlns="http://www.w3.org/2000/svg" xmlns:xlink="http://www.w3.org/1999/xlink" viewBox="0 0 128 128" width="128px" height="128px">
<g id="surface29163136">
<path style=" stroke:none;fill-rule:nonzero;fill:rgb(25.882354%,24.313726%,21.568628%);fill-opacity:1;" d="M 20 12 C 15.605469 12 12 15.605469 12 20 L 12 108 C 12 112.394531 15.605469 116 20 116 L 108 116 C 112.394531 116 116 112.394531 116 108 L 116 81.351562 C 116.035156 81.132812 116.035156 80.914062 116 80.695312 L 116 20 C 116 15.605469 112.394531 12 108 12 Z M 20 16 L 108 16 C 110.234375 16 112 17.765625 112 20 L 112 76.164062 L 107.527344 71.679688 C 107.148438 71.292969 106.632812 71.074219 106.089844 71.074219 C 105.277344 71.074219 104.542969 71.566406 104.238281 72.320312 C 103.929688 73.074219 104.113281 73.941406 104.695312 74.507812 L 112 81.828125 L 112 108 C 112 110.234375 110.234375 112 108 112 L 86 112 L 86 84 C 86 83.777344 85.964844 83.558594 85.890625 83.347656 L 71.304688 41.046875 L 88.445312 58.222656 C 88.945312 58.746094 89.691406 58.957031 90.390625 58.777344 C 91.09375 58.59375 91.640625 58.046875 91.824219 57.347656 C 92.007812 56.644531 91.800781 55.902344 91.277344 55.398438 L 67.515625 31.585938 C 67.34375 31.410156 67.144531 31.269531 66.921875 31.167969 C 66.050781 30.542969 65.015625 30.203125 64 30.203125 C 62.054688 30.203125 60.011719 31.425781 59.273438 33.570312 L 42.109375 83.347656 C 42.035156 83.558594 42 83.777344 42 84 L 42 112 L 20 112 C 17.765625 112 16 110.234375 16 108 L 16 20 C 16 17.765625 17.765625 16 20 16 Z M 48.785156 30.921875 C 47.824219 30.972656 47.03125 31.699219 46.90625 32.65625 C 46.777344 33.609375 47.351562 34.519531 48.265625 34.820312 L 52.046875 36.121094 C 52.726562 36.367188 53.484375 36.226562 54.03125 35.757812 C 54.578125 35.285156 54.828125 34.558594 54.6875 33.851562 C 54.546875 33.144531 54.035156 32.566406 53.351562 32.339844 L 49.570312 31.039062 C 49.320312 30.949219 49.050781 30.90625 48.785156 30.921875 Z M 64 34.203125 C 64.425781 34.203125 64.753906 34.324219 64.945312 34.875 L 69.472656 48 L 58.527344 48 L 63.054688 34.875 C 63.246094 34.324219 63.574219 34.203125 64 34.203125 Z M 45.679688 39.914062 C 44.71875 39.964844 43.929688 40.695312 43.804688 41.648438 C 43.675781 42.605469 44.25 43.511719 45.164062 43.8125 L 48.945312 45.117188 C 49.625 45.363281 50.382812 45.222656 50.929688 44.753906 C 51.476562 44.28125 51.726562 43.554688 51.585938 42.847656 C 51.445312 42.136719 50.933594 41.5625 50.25 41.335938 L 46.46875 40.03125 C 46.214844 39.941406 45.949219 39.898438 45.679688 39.914062 Z M 42.582031 48.90625 C 41.621094 48.957031 40.828125 49.683594 40.703125 50.640625 C 40.574219 51.59375 41.148438 52.503906 42.0625 52.804688 L 45.847656 54.109375 C 46.527344 54.367188 47.296875 54.230469 47.851562 53.757812 C 48.40625 53.285156 48.65625 52.550781 48.511719 51.835938 C 48.367188 51.121094 47.84375 50.546875 47.148438 50.328125 L 43.367188 49.023438 C 43.117188 48.933594 42.847656 48.890625 42.582031 48.90625 Z M 57.148438 52 L 70.851562 52 L 79.175781 76.148438 C 78.792969 76.0625 78.402344 76 78 76 C 75.609375 76 73.492188 77.605469 72.132812 80.019531 C 71.960938 80.324219 71.886719 80.773438 71.734375 81.105469 C 71.496094 80.699219 71.371094 80.160156 71.101562 79.800781 C 69.28125 77.375 66.667969 76 64 76 C 61.332031 76 58.71875 77.375 56.898438 79.800781 C 56.628906 80.160156 56.503906 80.699219 56.265625 81.105469 C 56.113281 80.773438 56.039062 80.324219 55.867188 80.019531 C 54.507812 77.605469 52.390625 76 50 76 C 49.597656 76 49.207031 76.0625 48.824219 76.148438 Z M 39.480469 57.898438 C 38.519531 57.949219 37.726562 58.675781 37.601562 59.632812 C 37.472656 60.585938 38.046875 61.496094 38.960938 61.796875 L 42.742188 63.101562 C 43.421875 63.347656 44.179688 63.207031 44.726562 62.738281 C 45.273438 62.265625 45.523438 61.539062 45.382812 60.832031 C 45.242188 60.121094 44.730469 59.546875 44.046875 59.320312 L 40.265625 58.015625 C 40.015625 57.925781 39.746094 57.882812 39.480469 57.898438 Z M 96.058594 61.019531 C 95.242188 61.019531 94.511719 61.511719 94.203125 62.265625 C 93.894531 63.019531 94.078125 63.886719 94.660156 64.453125 L 98.613281 68.414062 C 99.113281 68.9375 99.859375 69.148438 100.558594 68.96875 C 101.261719 68.785156 101.808594 68.238281 101.992188 67.539062 C 102.175781 66.835938 101.96875 66.09375 101.445312 65.589844 L 97.492188 61.628906 C 97.117188 61.242188 96.597656 61.019531 96.058594 61.019531 Z M 36.378906 66.890625 C 35.417969 66.941406 34.628906 67.671875 34.503906 68.625 C 34.375 69.582031 34.949219 70.488281 35.863281 70.789062 L 39.644531 72.09375 C 40.324219 72.339844 41.082031 72.199219 41.628906 71.730469 C 42.175781 71.257812 42.425781 70.53125 42.285156 69.824219 C 42.144531 69.113281 41.632812 68.539062 40.949219 68.3125 L 37.164062 67.007812 C 36.914062 66.917969 36.644531 66.875 36.378906 66.890625 Z M 50 80 C 50.609375 80 51.492188 80.394531 52.382812 81.980469 C 53.273438 83.566406 54 86.25 54 90 L 54 112 L 46 112 L 46 90 C 46 86.25 46.726562 83.566406 47.617188 81.980469 C 48.507812 80.394531 49.390625 80 50 80 Z M 64 80 C 65.332031 80 66.71875 80.625 67.898438 82.199219 C 69.078125 83.773438 70 86.332031 70 90 L 70 112 L 58 112 L 58 90 C 58 86.332031 58.921875 83.773438 60.101562 82.199219 C 61.28125 80.625 62.667969 80 64 80 Z M 78 80 C 78.609375 80 79.492188 80.394531 80.382812 81.980469 C 81.273438 83.566406 82 86.25 82 90 L 82 112 L 74 112 L 74 90 C 74 86.25 74.726562 83.566406 75.617188 81.980469 C 76.507812 80.394531 77.390625 80 78 80 Z M 78 80 "/>
</g>
</svg>
