<svg xmlns="http://www.w3.org/2000/svg" viewBox="0 0 100 100" width="100" height="100"><path d="M12 8c-2.188 0-4 1.813-4 4v76c0 2.188 1.813 4 4 4h76c2.188 0 4-1.813 4-4V12c0-2.188-1.813-4-4-4zm0 4h76v76H12zm25.172 16c-2.879 0-5.184.32-7.168.832L30 72h4.93V53.66c.703.063 1.343.063 2.175.063 3.84 0 7.872-1.598 10.176-4.797 1.664-2.176 2.621-4.864 2.621-8.832 0-3.774-1.086-6.914-3.132-8.961C44.53 28.957 41.137 28 37.172 28zm.781 3.281c5.504 0 7.293 3.965 7.293 8.38 0 6.077-3.266 9.28-8.062 9.28-.832 0-1.41-.062-1.985-.125V31.602c.64-.196 1.602-.32 2.754-.32zM63.433 40c-4.98 0-8.831 3.54-8.831 8.613 0 3.535 2.253 6.235 6.437 8.867 3.254 2.055 4.113 3.727 4.113 6.106 0 2.762-1.855 4.496-4.71 4.496-2.06 0-4.051-.898-5.18-1.605L54 70.199C55.395 71.293 57.984 72 60.309 72 65.62 72 70 68.98 70 62.746c0-4.305-2.918-7.2-6.633-9.512-3.187-2.054-3.984-3.277-3.984-5.332 0-2.054 1.39-3.98 4.113-3.98 1.727 0 3.055.578 4.316 1.414l1.329-3.73C67.812 40.77 65.957 40 63.434 40zm0 0" fill="#423e37"/></svg>