<svg xmlns="http://www.w3.org/2000/svg" viewBox="0 0 128 128" width="128" height="128"><path d="M20 12c-4.395 0-8 3.605-8 8v88c0 4.395 3.605 8 8 8h88c4.395 0 8-3.605 8-8V81.352a2.055 2.055 0 000-.657V20c0-4.395-3.605-8-8-8zm0 4h88c2.234 0 4 1.766 4 4v56.164l-4.473-4.484a2.01 2.01 0 00-1.437-.606 2 2 0 00-1.395 3.434l7.305 7.32V108c0 2.234-1.766 4-4 4H86V84c0-.223-.035-.441-.11-.652L71.306 41.047l17.14 17.176c.5.523 1.246.734 1.946.554a2.004 2.004 0 00.886-3.379L67.516 31.586a1.971 1.971 0 00-.594-.418c-.871-.625-1.906-.965-2.922-.965-1.945 0-3.988 1.223-4.727 3.367L42.11 83.348c-.074.21-.109.43-.109.652v28H20c-2.234 0-4-1.766-4-4V20c0-2.234 1.766-4 4-4zm28.785 14.922a1.999 1.999 0 00-.52 3.898l3.782 1.301a2 2 0 001.984-.363 2.001 2.001 0 00-.68-3.418l-3.78-1.3a1.99 1.99 0 00-.786-.118zM64 34.203c.426 0 .754.121.945.672L69.473 48H58.527l4.528-13.125c.191-.55.52-.672.945-.672zm-18.32 5.711c-.961.05-1.75.781-1.875 1.734a1.998 1.998 0 001.36 2.164l3.78 1.305c.68.246 1.438.106 1.985-.363a2.001 2.001 0 00-.68-3.418l-3.781-1.305a2.01 2.01 0 00-.79-.117zm-3.098 8.992a2 2 0 00-.52 3.898l3.786 1.305a2 2 0 101.3-3.78l-3.78-1.306a1.99 1.99 0 00-.786-.117zM57.148 52h13.704l8.324 24.148A5.354 5.354 0 0078 76c-2.39 0-4.508 1.605-5.867 4.02-.172.304-.246.753-.399 1.085-.238-.406-.363-.945-.632-1.304C69.282 77.375 66.668 76 64 76s-5.281 1.375-7.102 3.8c-.27.36-.394.9-.632 1.305-.153-.332-.227-.78-.399-1.085C54.507 77.605 52.391 76 50 76c-.402 0-.793.063-1.176.148zM39.48 57.898a2 2 0 00-.52 3.898l3.782 1.306c.68.246 1.438.105 1.985-.364a2.001 2.001 0 00-.68-3.418l-3.781-1.304a1.99 1.99 0 00-.786-.118zm56.58 3.122a2.002 2.002 0 00-1.399 3.433l3.953 3.961c.5.523 1.246.734 1.946.555a2.004 2.004 0 00.886-3.38l-3.953-3.96a2.004 2.004 0 00-1.433-.61zm-59.68 5.87a2 2 0 00-1.875 1.735 1.998 1.998 0 001.36 2.164l3.78 1.305c.68.246 1.438.105 1.985-.364a2.001 2.001 0 00-.68-3.418l-3.785-1.304a1.99 1.99 0 00-.785-.117zM50 80c.61 0 1.492.395 2.383 1.98C53.273 83.566 54 86.25 54 90v22h-8V90c0-3.75.727-6.434 1.617-8.02C48.507 80.395 49.391 80 50 80zm14 0c1.332 0 2.719.625 3.898 2.2C69.078 83.772 70 86.331 70 90v22H58V90c0-3.668.922-6.227 2.102-7.8C61.282 80.624 62.668 80 64 80zm14 0c.61 0 1.492.395 2.383 1.98C81.273 83.566 82 86.25 82 90v22h-8V90c0-3.75.727-6.434 1.617-8.02C76.507 80.395 77.391 80 78 80zm0 0" fill="#423e37"/></svg>